# xmcd
#
# Track frame offsets:
#	150
#	21345
#	32999
#	56731
#	74901
#	88332
#	102167
#	118891
#	134083
#	152349
#	163276
#	172919
#
# Disc length: 2503 seconds
#
# Revision: 0
# Processed by: cddbd v1.5.2PL0 Copyright (c) Steve Scherf et al.
# Submitted via: EasyCDDAExtractor 10.0.6.1
#
DISCID=b309c50c
DTITLE=The Barker Brothers - Jeremy And Jonathan
DYEAR=1900
DGENRE=Bluegrass
TTITLE0=Banjo Boogie
TTITLE1=You Could Hear That Whistle Blow
TTITLE2=Foggy Mountain Breakdown
TTITLE3=Whoa Mule
TTITLE4=Blue Moon Of Kentucky
TTITLE5=Shucking The Corn
TTITLE6=Old Joe Clalk
TTITLE7=Old Homeplace
TTITLE8=Lomesome Road Blues
TTITLE9=Earl's Breakdown
TTITLE10=Dark Holler
TTITLE11=Orange Blossom Special
EXTD=
EXTT0=
EXTT1=
EXTT2=
EXTT3=
EXTT4=
EXTT5=
EXTT6=
EXTT7=
EXTT8=
EXTT9=
EXTT10=
EXTT11=
PLAYORDER=
